 <svg
      width="36"
      height="36"
      viewBox="0 0 66 66"
      fill="none"
      xmlns="http://www.w3.org/2000/svg"
    >
      <path
        d="M63.9622 29.3109C63.9622 44.6705 51.5108 57.1218 36.1513 57.1218C20.7917 57.1218 8.34033 44.6705 8.34033 29.3109C8.34033 13.9514 20.7917 1.5 36.1513 1.5C51.5108 1.5 63.9622 13.9514 63.9622 29.3109Z"
        stroke="#C6E950"
        strokeWidth="3"
      />
      <path
        d="M36.4202 64C17.4104 64 2 48.3488 2 29.042"
        stroke="#FDA30B"
        strokeWidth="3"
      />
      <path
        d="M24.619 20.1914H40.8456C42.4683 20.1914 43.7959 21.519 43.7959 23.1417V34.9429C43.7959 36.5656 42.4683 37.8932 40.8456 37.8932H24.619C22.9963 37.8932 21.6687 36.5656 21.6687 34.9429V23.1417C21.6687 21.519 22.9963 20.1914 24.619 20.1914V20.1914Z"
        fill="#FDFDFD"
      />
      <path
        d="M43.7959 32.7299V25.3542L51.1717 20.9287V37.1554L43.7959 32.7299Z"
        fill="#FDFDFD"
      />
    </svg>